<?xml version="1.0" encoding="utf-8"?>
<!-- Generator: Adobe Illustrator 24.2.3, SVG Export Plug-In . SVG Version: 6.00 Build 0)  -->
<svg version="1.1" id="Layer_1" xmlns="http://www.w3.org/2000/svg" xmlns:xlink="http://www.w3.org/1999/xlink" x="0px" y="0px"
	 viewBox="0 0 1043 601" style="enable-background:new 0 0 1043 601;" xml:space="preserve">
<style type="text/css">
	.st0{fill-rule:evenodd;clip-rule:evenodd;fill:#5D2509;}
	.st1{fill-rule:evenodd;clip-rule:evenodd;fill:#C89211;}
	.st2{fill:#5D2509;}
</style>
<g>
	<path id="XMLID_95_" class="st0" d="M971.1,158.4l66.5,30.3c-179.1,23.8-343,102.7-474.9,242.4C675.4,276.9,813,189.9,971.1,158.4z
		"/>
	<path id="XMLID_94_" class="st0" d="M909.3,93.7l68.8,18.6c-156.4,36.8-341.8,184.5-438.3,330.1C630.7,289,760.4,134.7,909.3,93.7z
		"/>
	<path id="XMLID_93_" class="st0" d="M852.4,34.4l89.1-0.6c-170.8,68.5-332.9,242.4-411.1,408.5C589.9,284.7,725.2,102.1,852.4,34.4
		z"/>
	<path id="XMLID_92_" class="st1" d="M694.8,7.4L819.6,6C665.8,80.9,557.4,278.8,525,432.8C520.1,270.4,601.9,102.6,694.8,7.4z"/>
	<path id="XMLID_91_" class="st1" d="M589,7.3l105.8-0.2C548.6,97.9,512.8,289.5,525,432.8C488,301.3,497,97.3,589,7.3z"/>
	<path id="XMLID_90_" class="st0" d="M89.7,158.4l-66.5,30.3c179.1,23.8,343,102.7,474.9,242.4C385.4,276.9,247.9,189.9,89.7,158.4z
		"/>
	<path id="XMLID_89_" class="st0" d="M156.2,93.7l-68.8,18.6c156.4,36.8,341.8,184.5,438.4,330.1C434.8,289,305.1,134.7,156.2,93.7z
		"/>
	<path id="XMLID_88_" class="st1" d="M278.3,55.8l-89-0.5c158.2,61.6,288.8,209.5,334.2,362.1C498.9,275.5,400.1,115.2,278.3,55.8z"
		/>
	<path id="XMLID_87_" class="st0" d="M34.1,183.1L5.9,196.5c31.8,7.3,67.4,21.1,100.6,43.9C91.3,195.5,82.9,197.5,34.1,183.1z"/>
	<g id="XMLID_97_">
		<path id="XMLID_86_" class="st2" d="M262.2,577.2c-0.6-0.2-1.1-0.4-1.5-0.8c-0.4-0.4-0.7-0.9-0.8-1.5c-0.2-0.6-0.3-1.4-0.3-2.4
			v-10.1h10.6v-6.4h-10.6v-10.2h-6.9v10.2h-5.2v6.4h5.2V575c0,1.7,0.2,3.1,0.6,4.2c0.4,1.1,1.1,2,2,2.7c0.9,0.7,2.1,1.2,3.5,1.5
			c1.4,0.3,3,0.5,5,0.5h6.6v-6.4h-5.8C263.6,577.5,262.9,577.4,262.2,577.2z"/>
		<path id="XMLID_193_" class="st2" d="M162.5,564.9c-0.7-2.1-1.7-3.9-3-5.4s-2.8-2.6-4.6-3.3s-3.8-1.1-5.9-1.1c-2,0-4,0.4-5.8,1.1
			c-1.8,0.7-3.4,1.7-4.7,3c-1.3,1.3-2.4,2.9-3.2,4.7c-0.8,1.8-1.2,3.8-1.2,5.9c0,2.1,0.4,4,1.1,5.8s1.8,3.3,3.2,4.7s3,2.3,4.9,3.1
			c1.9,0.7,3.9,1.1,6.1,1.1c2.7,0,5.1-0.3,7-0.9c2-0.6,3.7-1.3,5.1-2.2l-3.1-6.2c-0.4,0.4-0.9,0.7-1.5,1c-0.6,0.3-1.3,0.5-2,0.8
			c-0.7,0.2-1.5,0.4-2.3,0.5c-0.8,0.1-1.6,0.2-2.3,0.2h-0.7c-2.2,0-4-0.5-5.5-1.4c-1.5-0.9-2.4-2.3-2.9-4.3h22
			C163.5,569.4,163.2,567,162.5,564.9z M141.6,566.3c0.4-1.5,1.3-2.7,2.6-3.7c1.3-1,2.9-1.5,4.8-1.5s3.5,0.4,4.8,1.3
			s2.1,2.1,2.5,3.9L141.6,566.3L141.6,566.3z"/>
		<path id="XMLID_83_" class="st2" d="M288.4,577.2c-0.6-0.2-1.1-0.4-1.5-0.8c-0.4-0.4-0.7-0.9-0.8-1.5c-0.2-0.6-0.3-1.4-0.3-2.4
			v-10.1h10.6v-6.4h-10.6v-10.2h-6.9v10.2h-5.2v6.4h5.2V575c0,1.7,0.2,3.1,0.6,4.2c0.4,1.1,1.1,2,2,2.7c0.9,0.7,2.1,1.2,3.5,1.5
			c1.4,0.3,3,0.5,5,0.5h6.6v-6.4h-5.8C289.8,577.5,289,577.4,288.4,577.2z"/>
		<path id="XMLID_36_" class="st2" d="M198.4,473.4V486c3.6,0,7.4,1.5,8.4,4.2h-11.9v12.6h25.1v-12.6c-0.9-4-3.5-7.7-6.3-10.5
			C209.7,475.8,204.3,473.4,198.4,473.4z"/>
		<path id="XMLID_82_" class="st2" d="M116.1,564c0.7-0.7,1.5-1.3,2.5-1.6s2.1-0.6,3.3-0.6c1.3,0,2.5,0.2,3.6,0.5s2.1,0.7,3,1.3
			l2.8-6.2c-1.4-0.7-2.9-1.3-4.5-1.7c-1.5-0.4-3.3-0.6-5.2-0.6c-2.1,0-4.1,0.4-6,1.1s-3.4,1.8-4.8,3.1s-2.4,2.9-3.1,4.7
			c-0.7,1.8-1.1,3.8-1.1,5.9s0.4,4.1,1.1,5.9s1.8,3.3,3.1,4.7c1.3,1.3,2.9,2.3,4.8,3.1c1.8,0.7,3.8,1.1,6,1.1c1.9,0,3.6-0.2,5.2-0.6
			s3-0.9,4.5-1.7l-2.8-6.3c-0.9,0.6-1.9,1-3,1.3s-2.3,0.4-3.6,0.4c-1.2,0-2.3-0.2-3.3-0.6c-1-0.4-1.8-0.9-2.5-1.6
			c-0.7-0.7-1.2-1.5-1.6-2.5c-0.4-1-0.6-2-0.6-3.2s0.2-2.3,0.6-3.2C114.8,565.6,115.4,564.7,116.1,564z"/>
		<polygon id="XMLID_35_" class="st2" points="159.1,502.8 171.7,502.8 171.7,460.7 159.1,465 		"/>
		<path id="XMLID_186_" class="st2" d="M242.1,560.9c-0.6-1.4-1.5-2.5-2.6-3.4c-1.1-0.9-2.4-1.5-3.9-1.9c-1.5-0.4-3.2-0.6-4.9-0.6
			c-1.9,0-3.8,0.2-5.5,0.6s-3.2,0.9-4.3,1.5l-0.9,7.1c0.7-0.3,1.5-0.6,2.3-0.9c0.8-0.3,1.7-0.6,2.5-0.8c0.9-0.2,1.7-0.4,2.6-0.5
			c0.9-0.1,1.6-0.2,2.4-0.2c1.9,0,3.5,0.3,4.6,0.8s1.8,1.6,1.8,3.2v0.4c-1-0.2-2-0.3-2.9-0.3c-0.9,0-1.7-0.1-2.5-0.1
			c-1.9,0-3.6,0.2-5.2,0.6c-1.6,0.4-3,1-4.1,1.8c-1.1,0.8-2,1.8-2.7,3c-0.6,1.2-1,2.5-1,4.1c0,1.7,0.4,3.2,1.1,4.3
			c0.7,1.2,1.7,2.1,2.9,2.8c1.2,0.7,2.6,1.3,4.2,1.6s3.3,0.5,5,0.5c2.1,0,4.2-0.2,6.3-0.6s4.1-0.9,5.8-1.6v-16.2
			C243,564.1,242.7,562.3,242.1,560.9z M236.1,577.5c-0.8,0.3-1.6,0.5-2.5,0.6s-1.8,0.2-2.6,0.2c-1.7,0-3.2-0.3-4.3-0.8
			c-1.2-0.5-1.8-1.4-1.8-2.7c0-0.7,0.2-1.2,0.5-1.7c0.4-0.5,0.8-0.8,1.4-1.1c0.6-0.3,1.3-0.5,2-0.6c0.8-0.1,1.6-0.2,2.5-0.2
			c0.8,0,1.6,0.1,2.4,0.2c0.9,0.1,1.6,0.3,2.3,0.4V577.5z"/>
		<polygon id="XMLID_34_" class="st2" points="241,473.4 228.4,477.6 228.4,490.2 220,490.2 220,502.8 241,502.8 		"/>
		<path id="XMLID_79_" class="st2" d="M208.8,564.3c-1.1-1-2.4-1.8-3.9-2.5s-3.1-1.2-4.8-1.6l-3.4-0.8c-2.2-0.6-3.9-1.2-4.9-2
			c-1-0.8-1.5-1.8-1.5-3.2c0-0.7,0.2-1.4,0.6-1.9c0.4-0.5,0.9-1,1.6-1.4s1.4-0.6,2.3-0.8c0.9-0.2,1.8-0.3,2.7-0.3c2,0,3.9,0.3,6,0.8
			s3.8,1.3,5.3,2.3l2.8-6.3c-0.9-0.5-1.8-1-2.9-1.4s-2.3-0.8-3.5-1.1s-2.5-0.6-3.8-0.8s-2.6-0.3-3.8-0.3c-2.2,0-4.1,0.3-5.9,0.8
			c-1.8,0.5-3.3,1.3-4.6,2.3s-2.3,2.1-3,3.5c-0.7,1.3-1,2.8-1,4.5c0,3,0.9,5.5,2.8,7.6c1.9,2,4.6,3.5,8.3,4.4l3.3,0.8
			c1.1,0.3,2.2,0.6,3.1,0.9s1.7,0.7,2.4,1.1c0.7,0.4,1.2,0.9,1.5,1.5s0.5,1.3,0.5,2.1c0,0.9-0.2,1.7-0.7,2.4c-0.4,0.7-1,1.2-1.8,1.7
			c-0.8,0.4-1.7,0.7-2.7,0.9s-2.2,0.3-3.4,0.3c-1.1,0-2.1-0.1-3.2-0.3c-1.1-0.2-2.1-0.4-3.2-0.6s-2-0.6-2.9-1
			c-0.9-0.4-1.7-0.8-2.4-1.3l-2.8,6.3c0.9,0.5,1.9,1,3,1.4s2.3,0.8,3.6,1.1c1.3,0.3,2.6,0.6,4,0.7s2.8,0.3,4.2,0.3
			c2.3,0,4.4-0.3,6.3-0.8c2-0.5,3.6-1.3,5-2.3s2.5-2.3,3.3-3.7c0.8-1.5,1.2-3.2,1.2-5.1c0-1.8-0.3-3.3-1-4.7
			C210.8,566.5,210,565.3,208.8,564.3z"/>
		<polygon id="XMLID_33_" class="st2" points="230.9,522.3 239.8,513.3 230.9,504.4 222,513.3 		"/>
		<path id="XMLID_32_" class="st2" d="M14.9,516c3.6-3.6,6.3-8.1,7.7-13.1h1.2v0h33.6v-29.4l-12.6,4.2v12.6h-21v-16.8l-12.6,4.2
			v16.8c0,4.9-2,9.4-5.2,12.6l-0.1,0.1l8.9,8.9L14.9,516z"/>
		<path id="XMLID_179_" class="st2" d="M716.8,490.2c0-4.8-3.3-10.7-8.8-14c-3.4-2.1-7.5-2.9-12.2-2.9h-12.6v16.9h-8.5v12.6h42.1
			V490.2z M695.7,490.2v-4.3c2.1,0,4.3-0.1,5.8,0.8c1,0.7,1.8,1.8,1.8,3.5H695.7z"/>
		<path id="XMLID_29_" class="st2" d="M746.3,450h-11.2c0.3-0.4,0.5-0.7,0.8-1c0.7-0.6,1.6-1,2.6-1h5.8l-1.9-5.7h-3.8
			c-1.3,0-2.7,0.3-3.8,0.8c-3,1.3-5,3.8-5.7,6.8h-1.9l-1.9,5.7h19.2L746.3,450z"/>
		<polygon id="XMLID_28_" class="st2" points="475.7,460.7 463.1,465 463.1,502.8 475.7,502.8 		"/>
		<polygon id="XMLID_27_" class="st2" points="342.6,475.4 333.6,466.5 324.7,475.4 333.6,484.4 		"/>
		<polygon id="XMLID_26_" class="st2" points="994.5,522.3 1003.4,513.3 994.5,504.4 985.5,513.3 		"/>
		<path id="XMLID_25_" class="st2" d="M295.8,490.2h-32.8c1.1-3.1,4-4.3,7.6-4.3h16.8l-4.2-12.6h-12.6c-11.1,0-19,7.9-21,16.9H241
			v12.6h46.3L295.8,490.2z"/>
		<path id="XMLID_24_" class="st2" d="M1038.1,490.2h-8.2c-2.2-9.8-10.9-16.9-21-16.9h-42.1l-4.2,12.6h46.3c3.2,0,6.7,1,7.6,4.3
			h-62.6v12.6h75.8L1038.1,490.2z"/>
		<polygon id="XMLID_23_" class="st2" points="822.9,463.3 831.3,471.7 840.2,462.8 831.3,453.8 822.9,462.3 814.5,453.8 
			805.6,462.8 814.5,471.7 		"/>
		<polygon id="XMLID_22_" class="st2" points="953.9,460.7 941.3,465 941.3,502.8 953.9,502.8 		"/>
		<path id="XMLID_168_" class="st2" d="M131.8,502.8h21v-42l-12.6,4.2v25.3h-8.4h0h-7.6c1.4-2.3,4.1-4.3,7.6-4.3v-12.6H85v12.6
			c3.5,0,6.1,1.9,7.6,4.3h-16v-16.8l-12.6,4.2v16.8c0,4.9-2,9.4-5.2,12.6l-0.1,0.1l8.9,8.9l0.1-0.1c3.6-3.6,6.3-8.1,7.7-13.1h1.2v0
			L131.8,502.8L131.8,502.8L131.8,502.8z M110.7,490.2H106c-0.3-1.5-0.8-2.9-1.4-4.3h7.6C111.5,487.3,111.1,488.7,110.7,490.2z"/>
		<path id="XMLID_78_" class="st2" d="M48.1,555.7c-0.9,0.1-1.8,0.2-2.8,0.3c-1,0.1-1.9,0.2-2.9,0.4s-1.9,0.3-2.8,0.5v27.1h6.9
			v-21.2c0.2-0.1,0.5-0.1,1-0.2c0.5-0.1,1-0.1,1.5-0.2s1.1-0.1,1.6-0.1c0.5,0,0.9,0,1.2,0h4v-6.6h-5.2
			C49.8,555.6,49,555.6,48.1,555.7z"/>
		<polygon id="XMLID_19_" class="st2" points="79.6,462.8 70.7,453.9 61.8,462.8 70.7,471.8 		"/>
		<rect id="XMLID_77_" x="61.3" y="556" class="st2" width="6.9" height="27.8"/>
		<path id="XMLID_76_" class="st2" d="M97.8,557.3c-1.1-0.9-2.5-1.5-4.1-1.8c-1.6-0.3-3.2-0.5-5-0.5c-0.8,0-1.6,0-2.6,0.1
			c-1,0.1-2,0.2-3.1,0.3s-2.2,0.3-3.4,0.5c-1.1,0.2-2.3,0.4-3.4,0.6v27.4h6.9v-21.5c1-0.2,1.9-0.3,2.8-0.4c0.9-0.1,1.7-0.2,2.5-0.2
			c2,0,3.6,0.5,4.6,1.4c1.1,0.9,1.6,2.7,1.6,5.2v15.4h6.9v-17.4c0-2.3-0.3-4.2-1-5.6C99.8,559.3,98.9,558.2,97.8,557.3z"/>
		<path id="XMLID_75_" class="st2" d="M64.7,544.3c-1.1,0-2.1,0.3-2.9,1s-1.2,1.6-1.2,2.6c0,1.2,0.4,2.1,1.2,2.8
			c0.8,0.6,1.8,0.9,2.8,0.9c1.2,0,2.1-0.3,2.9-1c0.7-0.7,1.1-1.6,1.1-2.7c0-1.1-0.4-2-1.1-2.6C66.9,544.7,65.9,544.3,64.7,544.3z"/>
		<path id="XMLID_160_" class="st2" d="M323,557.5c-1.1-0.9-2.4-1.5-3.9-1.9c-1.5-0.4-3.2-0.6-4.9-0.6c-2,0-3.8,0.2-5.5,0.6
			s-3.2,0.9-4.3,1.5l-0.9,7.1c0.7-0.3,1.5-0.6,2.3-0.9c0.8-0.3,1.7-0.6,2.5-0.8c0.9-0.2,1.7-0.4,2.6-0.5c0.9-0.1,1.6-0.2,2.4-0.2
			c1.9,0,3.5,0.3,4.6,0.8s1.8,1.6,1.8,3.2v0.4c-1-0.2-2-0.3-2.9-0.3c-0.9,0-1.7-0.1-2.5-0.1c-1.9,0-3.6,0.2-5.2,0.6
			c-1.6,0.4-3,1-4.1,1.8c-1.1,0.8-2,1.8-2.7,3c-0.6,1.2-1,2.5-1,4.1c0,1.7,0.4,3.2,1.1,4.3c0.7,1.2,1.7,2.1,2.9,2.8
			c1.2,0.7,2.6,1.3,4.2,1.6s3.3,0.5,5,0.5c2.1,0,4.2-0.2,6.3-0.6s4.1-0.9,5.8-1.6v-16.2c0-2-0.3-3.7-0.9-5.1
			C325,559.5,324.1,558.4,323,557.5z M319.6,577.5c-0.8,0.3-1.6,0.5-2.5,0.6s-1.8,0.2-2.6,0.2c-1.7,0-3.2-0.3-4.3-0.8
			c-1.2-0.5-1.8-1.4-1.8-2.7c0-0.7,0.2-1.2,0.5-1.7c0.4-0.5,0.8-0.8,1.4-1.1c0.6-0.3,1.3-0.5,2-0.6c0.8-0.1,1.6-0.2,2.5-0.2
			c0.8,0,1.6,0.1,2.4,0.2c0.9,0.1,1.6,0.3,2.3,0.4V577.5z"/>
		<polygon id="XMLID_18_" class="st2" points="59.2,513.3 50.3,504.4 41.9,512.8 33.4,504.4 24.5,513.3 33.4,522.3 41.9,513.8 
			50.3,522.3 		"/>
		<polygon id="XMLID_17_" class="st2" points="26.9,462.8 18,453.9 9.1,462.8 18,471.8 		"/>
		<path id="XMLID_155_" class="st2" d="M32.1,547.6c-1.2-1.1-2.7-2-4.6-2.7s-4.1-1-6.6-1h-15v40.1H13v-15h7.9c2.5,0,4.6-0.4,6.5-1.1
			c1.9-0.7,3.4-1.7,4.6-2.8c1.2-1.2,2.1-2.5,2.7-4.1s0.9-3.2,0.9-4.8c0-1.6-0.3-3.1-0.9-4.6C34.2,550,33.3,548.7,32.1,547.6z
			 M27.5,559.1c-0.4,0.8-1,1.4-1.8,1.9s-1.7,0.8-2.8,1s-2.3,0.3-3.5,0.3H13v-11.9h6.4c3,0,5.2,0.5,6.6,1.4s2.1,2.4,2.1,4.4
			C28.1,557.3,27.9,558.3,27.5,559.1z"/>
		<path id="XMLID_70_" class="st2" d="M834,557.3c-1.2-0.9-2.5-1.5-4.1-1.8s-3.2-0.5-5-0.5c-0.8,0-1.6,0-2.6,0.1s-2,0.2-3.1,0.3
			c-1.1,0.1-2.2,0.3-3.4,0.5c-1.2,0.2-2.3,0.4-3.4,0.6v27.4h6.9v-21.5c1-0.2,1.9-0.3,2.8-0.4c0.9-0.1,1.7-0.2,2.5-0.2
			c2,0,3.6,0.5,4.7,1.4c1,0.9,1.6,2.7,1.6,5.2v15.4h6.9v-17.4c0-2.3-0.3-4.2-1-5.6C836.1,559.3,835.2,558.2,834,557.3z"/>
		<polygon id="XMLID_69_" class="st2" points="870.9,577.3 863.9,556 856.6,556 866.2,583.9 875.7,583.9 885.3,556 878,556 		"/>
		<polygon id="XMLID_16_" class="st2" points="776.6,460.7 764,465 764,502.8 776.6,502.8 		"/>
		<rect id="XMLID_68_" x="845.2" y="556" class="st2" width="6.9" height="27.8"/>
		<path id="XMLID_67_" class="st2" d="M848.7,544.3c-1.2,0-2.1,0.3-2.9,1s-1.2,1.6-1.2,2.6c0,1.2,0.4,2.1,1.2,2.8s1.8,0.9,2.8,0.9
			c1.2,0,2.2-0.3,2.9-1c0.7-0.7,1.1-1.6,1.1-2.7c0-1.1-0.4-2-1.1-2.6C850.8,544.7,849.8,544.3,848.7,544.3z"/>
		<path id="XMLID_66_" class="st2" d="M796.8,566.5c0,1.8-0.2,3.5-0.5,4.9s-0.9,2.6-1.7,3.5s-1.8,1.7-3.1,2.1
			c-1.3,0.5-2.8,0.7-4.7,0.7c-1.9,0-3.5-0.2-4.8-0.7s-2.3-1.2-3.1-2.1c-0.8-0.9-1.4-2.1-1.7-3.5c-0.3-1.4-0.5-3-0.5-4.9v-22.8h-7.1
			v24.4c0,2.3,0.3,4.4,0.9,6.4c0.6,2,1.6,3.7,3,5.2c1.4,1.5,3.1,2.6,5.3,3.5s4.8,1.3,8,1.3s5.8-0.4,8-1.3c2.2-0.8,4-2,5.3-3.5
			c1.4-1.5,2.4-3.2,3-5.2c0.6-2,0.9-4.1,0.9-6.4v-24.4h-7.1L796.8,566.5L796.8,566.5z"/>
		<path id="XMLID_15_" class="st2" d="M745,481.7c-1.6,0-3.2,0.2-4.8,0.5c-2.1-2-3.6-4.4-4.6-7c-1.5-4.3-1.4-9.2,0.8-13.6l-11.4-5.5
			c-3.6,7.6-3.9,16-1.3,23.3c1.2,3.4,3,6.6,5.3,9.4l-0.8,0.9c-3,3.7-4.9,8.5-4.9,13.6H736c0-2.7,1.3-5.2,3.2-6.8
			c1.6-1.3,3.5-2.1,5.8-2.1v8.4h12.6v-42.1l-12.6,4.2V481.7z"/>
		<path id="XMLID_65_" class="st2" d="M714,544.3c-1.2,0-2.1,0.3-2.9,1s-1.2,1.6-1.2,2.6c0,1.2,0.4,2.1,1.2,2.8s1.8,0.9,2.8,0.9
			c1.2,0,2.2-0.3,2.9-1c0.7-0.7,1.1-1.6,1.1-2.7c0-1.1-0.4-2-1.1-2.6C716.1,544.7,715.2,544.3,714,544.3z"/>
		<polygon id="XMLID_64_" class="st2" points="747.3,562.4 747.3,556 724.6,556 724.6,562.5 738.8,562.5 723.4,577.5 723.4,583.9 
			747.8,583.9 747.8,577.5 732.2,577.5 		"/>
		<path id="XMLID_141_" class="st2" d="M934.9,490.2c0-4.8-3.3-10.7-8.8-14c-3.4-2.1-7.5-2.9-12.2-2.9h-12.6v16.9h-8.4h0h-7.6
			c1.4-2.3,4.1-4.3,7.6-4.3v-12.6h-46.8v12.6c3.5,0,6.2,1.9,7.6,4.3h-16v-16.9h-16.8c-13.1,0-21,11-21,19v10.5h37.8h55.2h0h42
			L934.9,490.2L934.9,490.2z M825,490.2h-11.8c0.9-3.8,4.4-4.3,7.6-4.3h4.2V490.2z M871.8,490.2h-4.7c-0.3-1.5-0.8-2.9-1.4-4.3h7.6
			C872.6,487.3,872.2,488.7,871.8,490.2z M913.9,490.2v-4.3c2.1,0,4.3-0.1,5.8,0.8c1,0.7,1.8,1.8,1.8,3.5H913.9z"/>
		<rect id="XMLID_63_" x="710.5" y="556" class="st2" width="6.9" height="27.8"/>
		<path id="XMLID_62_" class="st2" d="M999.4,577.2c-0.6-0.2-1.1-0.4-1.5-0.8s-0.7-0.9-0.8-1.5c-0.2-0.6-0.3-1.4-0.3-2.4v-10.1h10.6
			v-6.4h-10.6v-10.2h-6.9v10.2h-5.2v6.4h5.2V575c0,1.7,0.2,3.1,0.6,4.2s1.1,2,2,2.7c0.9,0.7,2.1,1.2,3.5,1.5c1.4,0.3,3.1,0.5,5,0.5
			h6.6v-6.4h-5.8C1000.8,577.5,1000,577.4,999.4,577.2z"/>
		<path id="XMLID_61_" class="st2" d="M1030.7,556v20.5c-1,0.3-1.9,0.5-2.8,0.6c-0.8,0.1-1.6,0.2-2.4,0.2c-1,0-1.8-0.1-2.5-0.3
			s-1.3-0.6-1.7-1.1s-0.8-1.2-1-2s-0.3-1.9-0.3-3.2V556h-7v16.6c0,2.3,0.3,4.2,0.9,5.6c0.6,1.5,1.4,2.7,2.5,3.5s2.3,1.5,3.8,1.8
			s3.1,0.5,4.9,0.5c1.8,0,3.7-0.2,5.5-0.6v0.6c0,0.8-0.2,1.5-0.5,2.1c-0.4,0.6-0.9,1-1.5,1.4s-1.4,0.7-2.3,0.8
			c-0.9,0.2-1.9,0.3-2.9,0.3c-0.7,0-1.5,0-2.3-0.2c-0.8-0.1-1.7-0.3-2.6-0.5c-0.9-0.2-1.8-0.4-2.6-0.7s-1.6-0.5-2.3-0.8l1.5,7.2
			c0.6,0.2,1.2,0.3,1.9,0.5c0.7,0.2,1.4,0.3,2.1,0.4c0.7,0.1,1.4,0.2,2.1,0.3c0.7,0.1,1.3,0.1,1.9,0.1c2.8,0,5.1-0.2,6.9-0.7
			c1.8-0.5,3.3-1.2,4.4-2.3s1.9-2.4,2.4-4.1s0.7-3.8,0.7-6.2V556L1030.7,556L1030.7,556z"/>
		<rect id="XMLID_60_" x="972.8" y="556" class="st2" width="6.9" height="27.8"/>
		<path id="XMLID_59_" class="st2" d="M976.2,544.3c-1.2,0-2.1,0.3-2.9,1c-0.8,0.7-1.2,1.6-1.2,2.6c0,1.2,0.4,2.1,1.2,2.8
			c0.8,0.6,1.8,0.9,2.8,0.9c1.2,0,2.2-0.3,2.9-1c0.7-0.7,1.1-1.6,1.1-2.7c0-1.1-0.4-2-1.1-2.6C978.3,544.7,977.4,544.3,976.2,544.3z
			"/>
		<path id="XMLID_133_" class="st2" d="M915.2,564.9c-0.7-2.1-1.7-3.9-3-5.4c-1.3-1.5-2.8-2.6-4.6-3.3c-1.8-0.8-3.8-1.1-5.9-1.1
			c-2,0-4,0.4-5.8,1.1c-1.8,0.7-3.4,1.7-4.7,3s-2.4,2.9-3.2,4.7c-0.8,1.8-1.2,3.8-1.2,5.9c0,2.1,0.4,4,1.1,5.8s1.8,3.3,3.2,4.7
			s3,2.3,4.8,3.1c1.9,0.7,3.9,1.1,6.1,1.1c2.7,0,5.1-0.3,7-0.9c1.9-0.6,3.7-1.3,5.1-2.2l-3.1-6.2c-0.4,0.4-0.9,0.7-1.5,1
			c-0.6,0.3-1.3,0.5-2.1,0.8c-0.7,0.2-1.5,0.4-2.3,0.5c-0.8,0.1-1.6,0.2-2.3,0.2h-0.7c-2.2,0-4-0.5-5.5-1.4
			c-1.5-0.9-2.4-2.3-2.9-4.3h22.1C916.2,569.4,915.9,567,915.2,564.9z M894.3,566.3c0.4-1.5,1.3-2.7,2.6-3.7c1.3-1,2.9-1.5,4.8-1.5
			s3.5,0.4,4.8,1.3s2.1,2.1,2.5,3.9L894.3,566.3L894.3,566.3z"/>
		<path id="XMLID_56_" class="st2" d="M930,555.7c-0.9,0.1-1.8,0.2-2.8,0.3c-1,0.1-1.9,0.2-2.9,0.4s-1.9,0.3-2.8,0.5v27.1h6.9v-21.2
			c0.2-0.1,0.5-0.1,1-0.2c0.5-0.1,1-0.1,1.5-0.2s1.1-0.1,1.6-0.1c0.5,0,0.9,0,1.2,0h4v-6.6h-5.2C931.7,555.6,930.9,555.6,930,555.7z
			"/>
		<path id="XMLID_55_" class="st2" d="M955.7,566.7l-2.2-0.4c-1.8-0.3-2.9-0.7-3.6-1.1s-1-0.9-1-1.6c0-1.2,1.4-1.8,4.3-1.8
			c0.8,0,1.6,0,2.5,0.2c0.9,0.1,1.7,0.3,2.6,0.5s1.7,0.4,2.5,0.7c0.8,0.3,1.5,0.6,2.1,0.9l2.5-6.4c-1.6-0.9-3.3-1.5-5.4-1.9
			s-4.2-0.6-6.4-0.6c-3.6,0-6.5,0.8-8.5,2.3s-3.1,3.6-3.1,6.3c0,2.4,0.9,4.3,2.7,5.7c1.8,1.4,4.3,2.4,7.4,3l2.2,0.4
			c1.8,0.4,3,0.7,3.6,1.1s1,1,1,1.7c0,0.8-0.5,1.3-1.5,1.7s-2.2,0.5-3.7,0.5c-1.9,0-3.7-0.3-5.5-0.8c-1.8-0.5-3.3-1.2-4.6-2
			l-2.6,6.7c0.8,0.5,1.7,0.9,2.6,1.2c1,0.3,2,0.6,3.1,0.9s2.2,0.4,3.3,0.6s2.3,0.2,3.4,0.2c2.1,0,4-0.2,5.6-0.6c1.6-0.4,2.9-1,4-1.8
			c1.1-0.8,1.8-1.7,2.4-2.7s0.8-2.2,0.8-3.4c0-2.5-0.8-4.5-2.4-5.9C962.2,568.5,959.5,567.5,955.7,566.7z"/>
		<path id="XMLID_10_" class="st2" d="M674.6,473.4l-12.6,4.2v12.6h-21v-16.9l-12.6,4.2v16.8c0,4.9-2,9.4-5.2,12.6l-0.1,0.1l8.9,8.9
			l0.1-0.1c3.6-3.6,6.3-8.1,7.7-13.1h1.1h0h33.6L674.6,473.4L674.6,473.4z"/>
		<path id="XMLID_54_" class="st2" d="M438.5,544.3c-1.2,0-2.1,0.3-2.9,1s-1.2,1.6-1.2,2.6c0,1.2,0.4,2.1,1.2,2.8s1.8,0.9,2.8,0.9
			c1.2,0,2.2-0.3,2.9-1c0.7-0.7,1.1-1.6,1.1-2.7c0-1.1-0.4-2-1.1-2.6C440.6,544.7,439.7,544.3,438.5,544.3z"/>
		<path id="XMLID_126_" class="st2" d="M508.9,543.8l-14.8,40.1h7.5l3.4-9.5h16.6l3.4,9.5h7.5l-14.8-40.1H508.9z M507.3,567.8
			l5.9-16.7l5.9,16.7H507.3z"/>
		<path id="XMLID_51_" class="st2" d="M471.5,557.3c-1.2-0.9-2.5-1.5-4.1-1.8s-3.2-0.5-5-0.5c-0.8,0-1.6,0-2.6,0.1s-2,0.2-3.1,0.3
			c-1.1,0.1-2.2,0.3-3.4,0.5c-1.2,0.2-2.3,0.4-3.4,0.6v27.4h6.9v-21.5c1-0.2,1.9-0.3,2.8-0.4c0.9-0.1,1.7-0.2,2.5-0.2
			c2,0,3.6,0.5,4.7,1.4s1.6,2.7,1.6,5.2v15.4h6.9v-17.4c0-2.3-0.3-4.2-1-5.6C473.6,559.3,472.7,558.2,471.5,557.3z"/>
		<path id="XMLID_121_" class="st2" d="M426.8,566.3c-0.6-0.9-1.4-1.7-2.4-2.3s-2.1-1.2-3.5-1.6c1.9-0.9,3.3-2.1,4.2-3.6
			s1.4-3.2,1.4-4.8c0-1.4-0.3-2.7-0.9-4c-0.6-1.2-1.5-2.3-2.7-3.2s-2.7-1.6-4.5-2.2s-4-0.8-6.5-0.8h-13.8v40.1H414
			c1.8,0,3.6-0.2,5.4-0.7c1.8-0.4,3.3-1.1,4.7-2.1s2.5-2.2,3.3-3.6c0.8-1.5,1.3-3.3,1.3-5.4c0-1-0.2-2-0.4-3
			C427.8,568.1,427.4,567.2,426.8,566.3z M405.3,550.4h6.2c2.7,0,4.7,0.4,5.8,1.3s1.7,2,1.7,3.4c0,1.7-0.6,2.9-1.8,3.7
			s-3.1,1.2-5.8,1.2h-6.2V550.4z M419.2,576c-1.3,0.8-3.4,1.3-6.2,1.3h-7.7v-10.6h7.5c1.3,0,2.5,0.1,3.5,0.3s1.9,0.4,2.6,0.8
			c0.7,0.4,1.3,0.9,1.7,1.6c0.4,0.7,0.6,1.6,0.6,2.6C421.2,573.8,420.5,575.2,419.2,576z"/>
		<rect id="XMLID_47_" x="435.1" y="556" class="st2" width="6.9" height="27.8"/>
		<path id="XMLID_117_" class="st2" d="M423.1,502.8h33.6v-12.6c0-4.8-3.3-10.7-8.8-14c-3.4-2.1-7.5-2.9-12.2-2.9h-12.6v16.9
			c-13,0-22.7,7.8-27.4,17l10.1,8.9C407.7,508.8,414.5,502.8,423.1,502.8z M435.7,485.9c2.1,0,4.3-0.1,5.8,0.8
			c1,0.7,1.8,1.8,1.8,3.5h-7.6V485.9z"/>
		<polygon id="XMLID_7_" class="st2" points="364.4,522.3 373.3,513.3 364.4,504.4 355.5,513.3 		"/>
		<path id="XMLID_46_" class="st2" d="M371.5,557.3c-1.1-0.9-2.4-1.5-3.9-1.8c-1.5-0.3-3.1-0.5-4.8-0.5c-1.4,0-2.9,0.2-4.6,0.6
			c-1.7,0.4-3.3,0.9-4.7,1.5c-0.9-0.8-2.1-1.3-3.5-1.6c-1.4-0.3-2.9-0.5-4.4-0.5c-1.4,0-3.1,0.2-5.2,0.5s-4.2,0.7-6.4,1.1v27.3h6.9
			v-21.5l2.4-0.4c0.7-0.1,1.4-0.2,2.1-0.2c1,0,1.8,0.1,2.5,0.3s1.3,0.6,1.8,1.1c0.5,0.5,0.8,1.2,1,2c0.2,0.8,0.3,1.9,0.3,3.2v15.5
			h6.9v-15.7c0-0.4,0-0.8,0-1.4c0-0.5-0.1-1-0.2-1.5c-0.1-0.5-0.2-1-0.3-1.4c-0.1-0.4-0.2-0.7-0.3-0.9c0.9-0.4,1.8-0.7,2.7-0.9
			s1.8-0.3,2.5-0.3c1.9,0,3.3,0.5,4.2,1.4s1.3,2.7,1.3,5.2v15.5h6.9v-17.4c0-2.3-0.3-4.2-0.9-5.6
			C373.4,559.3,372.5,558.2,371.5,557.3z"/>
		<rect id="XMLID_45_" x="635.5" y="543.8" class="st2" width="6.9" height="40.1"/>
		<path id="XMLID_6_" class="st2" d="M350.9,502.8h1.7v0h21v-29.4l-12.6,4.2v12.6h-8.4v-8.5L340,486v8.4c0,4.2-3.1,6.3-6.3,6.3
			s-6.4-2.1-6.4-6.3v-4.2l-12.6,4.2c0,12.9,9.9,19.2,19.5,19C341.2,513.1,347.9,509.6,350.9,502.8z"/>
		<polygon id="XMLID_5_" class="st2" points="667.5,522.3 676.4,513.3 667.5,504.4 659.1,512.8 650.6,504.4 641.7,513.3 
			650.6,522.3 659.1,513.8 		"/>
		<polygon id="XMLID_44_" class="st2" points="703.6,562.4 703.6,556 680.9,556 680.9,562.5 695.1,562.5 679.7,577.5 679.7,583.9 
			704.1,583.9 704.1,577.5 688.5,577.5 		"/>
		<path id="XMLID_108_" class="st2" d="M560,559.3c-1.4-1.3-3-2.4-4.9-3.1s-4.1-1.1-6.5-1.1c-0.7,0-1.4,0-2.2,0.1
			c-0.8,0.1-1.7,0.2-2.6,0.3v-11.7h-6.9V583c3.4,1,7.2,1.4,11.2,1.4c2.6,0,4.9-0.4,6.9-1.1s3.7-1.8,5.1-3.1s2.4-2.9,3.2-4.7
			c0.7-1.8,1.1-3.7,1.1-5.8s-0.4-4-1.1-5.8C562.5,562.2,561.4,560.7,560,559.3z M554.7,575.8c-1.6,1.3-3.8,1.9-6.5,1.9
			c-1.3,0-2.7-0.2-4.3-0.5v-14.7c0.8-0.2,1.6-0.4,2.3-0.5c0.7-0.1,1.4-0.1,2-0.1c2.7,0,4.9,0.7,6.5,2c1.6,1.3,2.4,3.3,2.4,6
			C557.1,572.5,556.3,574.5,554.7,575.8z"/>
		<path id="XMLID_105_" class="st2" d="M670.7,557.5c-1.1-0.9-2.4-1.5-3.9-1.9c-1.5-0.4-3.2-0.6-4.9-0.6c-2,0-3.8,0.2-5.5,0.6
			s-3.2,0.9-4.3,1.5l-0.9,7.1c0.7-0.3,1.5-0.6,2.3-0.9s1.7-0.6,2.5-0.8c0.9-0.2,1.7-0.4,2.6-0.5s1.7-0.2,2.4-0.2
			c1.9,0,3.5,0.3,4.7,0.8s1.8,1.6,1.8,3.2v0.4c-1-0.2-2-0.3-2.9-0.3c-0.9,0-1.7-0.1-2.5-0.1c-1.9,0-3.6,0.2-5.2,0.6
			c-1.6,0.4-3,1-4.1,1.8c-1.1,0.8-2,1.8-2.7,3c-0.6,1.2-1,2.5-1,4.1c0,1.7,0.4,3.2,1.1,4.3c0.7,1.2,1.7,2.1,2.9,2.8
			c1.2,0.7,2.6,1.3,4.2,1.6c1.6,0.3,3.3,0.5,5,0.5c2.1,0,4.2-0.2,6.3-0.6c2.1-0.4,4.1-0.9,5.8-1.6v-16.2c0-2-0.3-3.7-0.9-5.1
			C672.7,559.5,671.8,558.4,670.7,557.5z M667.3,577.5c-0.8,0.3-1.6,0.5-2.5,0.6c-0.9,0.1-1.8,0.2-2.6,0.2c-1.7,0-3.2-0.3-4.3-0.8
			c-1.2-0.5-1.8-1.4-1.8-2.7c0-0.7,0.2-1.2,0.5-1.7c0.3-0.5,0.8-0.8,1.4-1.1c0.6-0.3,1.3-0.5,2-0.6c0.8-0.1,1.6-0.2,2.5-0.2
			c0.8,0,1.6,0.1,2.4,0.2c0.9,0.1,1.6,0.3,2.3,0.4L667.3,577.5L667.3,577.5z"/>
		<path id="XMLID_39_" class="st2" d="M620.6,577c-1,0.3-2,0.5-2.8,0.5c-0.8,0.1-1.6,0.2-2.4,0.2c-2,0-3.3-0.5-4.2-1.4
			c-0.9-0.9-1.3-2.7-1.3-5.2v-15H603v17c0,2.2,0.3,4,1,5.4s1.5,2.6,2.7,3.5c1.1,0.9,2.5,1.5,4,1.9c1.5,0.4,3.2,0.6,5,0.6
			c1.2,0,2.3,0,3.3-0.1s2-0.2,2.9-0.4c0.9-0.2,1.9-0.4,2.8-0.6c0.9-0.3,1.9-0.5,2.9-0.9V556h-6.9L620.6,577L620.6,577z"/>
		<path id="XMLID_101_" class="st2" d="M588.8,555.5c-1-0.1-1.8-0.2-2.7-0.3s-1.5-0.1-2.2-0.1c-2.4,0-4.5,0.4-6.5,1.1
			s-3.6,1.8-5,3.1c-1.4,1.3-2.5,2.9-3.2,4.7s-1.1,3.7-1.1,5.8s0.4,4,1.1,5.8c0.7,1.8,1.8,3.3,3.2,4.7s3.1,2.3,5.1,3.1
			c2,0.7,4.3,1.1,6.9,1.1c4,0,7.7-0.5,11.2-1.4v-39.3h-6.9L588.8,555.5L588.8,555.5z M588.8,577.2c-1.6,0.4-3,0.5-4.3,0.5
			c-2.7,0-4.9-0.6-6.5-1.9c-1.6-1.3-2.4-3.3-2.4-6s0.8-4.7,2.4-6c1.6-1.3,3.8-2,6.5-2c0.6,0,1.3,0,2,0.1s1.5,0.2,2.3,0.5V577.2z"/>
		<path id="XMLID_98_" class="st2" d="M593.6,490.2h-4.3v-12.6l-12.6,4.2v8.5h-3.5c-0.4-4.5-2.1-8.7-4.8-12l-10.9,6.8
			c1.5,1.3,2.6,3.1,3,5.1h-9v-16.9h-42.1c-6,0-10,2.6-12.6,6v-18.6l-12.6,4.2v25.3h-8.5v12.6h75.7h0h54.7v-29.4l-12.6,4.2
			L593.6,490.2L593.6,490.2z M538.9,490.2h-39.6c1.4-3.5,4-4.3,7.6-4.3h32V490.2z"/>
	</g>
</g>
</svg>
